<?xml version="1.0" encoding="iso-8859-1"?>
<!-- Uploaded to: SVG Repo, www.svgrepo.com, Generator: SVG Repo Mixer Tools -->
<svg version="1.1" id="Layer_1" xmlns="http://www.w3.org/2000/svg" xmlns:xlink="http://www.w3.org/1999/xlink" 
	 viewBox="0 0 512 512" xml:space="preserve">
<path style="fill:#3C1146;" d="M173.308,508.674H65.424C29.349,508.674,0,479.323,0,443.248V68.752
	C0,32.677,29.349,3.326,65.424,3.326h234.096c36.075,0,65.424,29.351,65.424,65.424v155.538c0,8.43-6.835,15.266-15.266,15.266
	s-15.266-6.836-15.266-15.266V68.752c0-19.241-15.652-34.892-34.892-34.892H65.424c-19.24-0.002-34.892,15.651-34.892,34.892
	v374.497c0,19.241,15.652,34.892,34.892,34.892h107.884c8.431,0,15.266,6.836,15.266,15.266S181.74,508.674,173.308,508.674z"/>
<rect x="108.435" y="116.755" style="fill:#D4A8B4;" width="148.066" height="94.164"/>
<g>
	<path style="fill:#3C1146;" d="M256.507,226.181H108.438c-8.431,0-15.266-6.836-15.266-15.266v-94.166
		c0-8.43,6.835-15.266,15.266-15.266h148.069c8.431,0,15.266,6.836,15.266,15.266v94.166
		C271.773,219.345,264.938,226.181,256.507,226.181z M123.704,195.649h117.537v-63.634H123.704V195.649z"/>
	<path style="fill:#3C1146;" d="M212.24,317.17h-59.533c-8.431,0-15.266-6.836-15.266-15.266c0-8.43,6.835-15.266,15.266-15.266
		h59.535c8.431,0,15.266,6.836,15.266,15.266C227.507,310.334,220.671,317.17,212.24,317.17z"/>
	<path style="fill:#3C1146;" d="M212.24,401.741h-59.533c-8.431,0-15.266-6.836-15.266-15.266s6.835-15.266,15.266-15.266h59.535
		c8.431,0,15.266,6.836,15.266,15.266S220.671,401.741,212.24,401.741z"/>
</g>
<path style="fill:#D4A8B4;" d="M496.734,493.406H252.477v-33.582c0-67.45,54.679-122.129,122.129-122.129l0,0
	c67.45,0,122.129,54.678,122.129,122.129V493.406z"/>
<path style="fill:#3C1146;" d="M496.734,508.674H252.477c-8.431,0-15.266-6.836-15.266-15.266v-33.584
	c0-75.759,61.635-137.395,137.395-137.395S512,384.064,512,459.824v33.584C512,501.837,505.165,508.674,496.734,508.674z
	 M267.743,478.141h213.725v-18.318c0-58.924-47.939-106.863-106.863-106.863S267.743,400.9,267.743,459.824V478.141z"/>
<circle style="fill:#D4A8B4;" cx="374.599" cy="312.13" r="25.444"/>
<path style="fill:#3C1146;" d="M374.605,352.837c-22.447,0-40.71-18.263-40.71-40.71s18.263-40.71,40.71-40.71
	c22.447,0,40.71,18.263,40.71,40.71S397.053,352.837,374.605,352.837z M374.605,301.951c-5.612,0-10.178,4.566-10.178,10.178
	c0,5.612,4.566,10.178,10.178,10.178c5.612,0,10.178-4.566,10.178-10.178C384.783,306.517,380.217,301.951,374.605,301.951z"/>
</svg>